<svg width="100" height="100" viewBox="0 0 100 100" fill="none" xmlns="http://www.w3.org/2000/svg">
<path d="M62.5 65.625C62.5 67.3516 61.1016 68.75 59.375 68.75H40.625C38.8984 68.75 37.5 67.3516 37.5 65.625V56.25H0V84.375C0 89.375 4.375 93.75 9.375 93.75H90.625C95.625 93.75 100 89.375 100 84.375V56.25H62.5V65.625ZM90.625 25H75V15.625C75 10.625 70.625 6.25 65.625 6.25H34.375C29.375 6.25 25 10.625 25 15.625V25H9.375C4.375 25 0 29.375 0 34.375V50H100V34.375C100 29.375 95.625 25 90.625 25ZM62.5 25H37.5V18.75H62.5V25Z" fill="black"/>
</svg>
