<svg width="100" height="100" viewBox="0 0 100 100" fill="none" xmlns="http://www.w3.org/2000/svg">
<g clip-path="url(#clip0)">
<path d="M51.2719 54.916V44.9691C51.2719 42.9347 52.2125 41.4847 54.2344 41.4847H66.7C66.7625 41.4847 66.8469 41.4191 66.8469 41.3378V39.3503C66.8469 39.3347 66.8469 39.3222 66.8312 39.3035H51.5813C48.2781 39.7253 46.6656 42.0378 46.6656 44.966V54.9128C46.6656 56.9128 45.6906 58.3785 43.7031 58.3785H30.5687C30.4844 58.3785 30.4219 58.4253 30.4219 58.5253V60.5097C30.4219 60.5941 30.4563 60.6597 30.5 60.6722H45.4406C49.3313 60.5597 51.2531 58.0847 51.2531 54.8972L51.2719 54.916ZM0.096875 60.691H4.475C4.51114 60.6781 4.54203 60.6536 4.56292 60.6215C4.58381 60.5893 4.59355 60.5511 4.59062 60.5128V54.1847C4.59062 52.1503 5.72812 50.7503 7.40312 50.7503H25.425C29.475 50.7503 31.4469 48.2597 31.4469 44.9878C31.4469 42.041 29.8344 39.7472 26.5312 39.3253H0.034375C0.034375 39.3378 0 39.3535 0 39.3722V41.3597C0 41.4566 0.05 41.5066 0.146875 41.5066H23.8937C25.9156 41.5066 26.8562 42.9566 26.8562 44.9722C26.8562 46.9878 25.9156 48.4566 23.8937 48.4566H5.11562C2.2 48.4566 0.003125 50.9316 0.003125 54.1847V60.5128C0.003125 60.5972 0.053125 60.6628 0.115625 60.6753L0.096875 60.691ZM66.7625 58.4003H90.6906C90.7531 58.4003 90.8187 58.4472 90.8187 58.4972V60.5128C90.8187 60.6128 90.8812 60.6628 90.9469 60.6628H95.2594C95.3438 60.6628 95.4219 60.6128 95.4219 60.5128V58.5285C95.4219 58.4441 95.5062 58.3816 95.5844 58.3816H99.8688C99.9656 58.3816 100.016 58.2972 100.016 58.2347V56.2128C100.016 56.1347 99.9812 56.0504 99.8688 56.0504H95.5844C95.5062 56.0504 95.4219 55.9878 95.4219 55.9222V41.4847C95.4219 40.3128 95 39.5628 94.25 39.3066H93.0125C92.5702 39.4387 92.1453 39.6234 91.7469 39.8566L65.9969 55.7597C64.9875 56.3941 64.6469 57.0941 64.8875 57.6129C65.0844 58.0535 65.6719 58.3785 66.775 58.3785L66.7625 58.4003ZM70.5094 55.7472L90.4625 43.3941C90.5906 43.2972 90.8375 43.3285 90.8375 43.6066V55.9441C90.8375 56.0222 90.7719 56.091 90.7094 56.091H70.6219C70.4594 56.091 70.3813 56.041 70.3625 55.9941C70.3281 55.8941 70.3781 55.816 70.5094 55.7472Z" fill="black"/>
</g>
<defs>
<clipPath id="clip0">
<rect width="100" height="100" fill="white"/>
</clipPath>
</defs>
</svg>
