<svg width="100" height="100" viewBox="0 0 100 100" fill="none" xmlns="http://www.w3.org/2000/svg">
<g clip-path="url(#clip0)">
<path d="M13.1999 31.5283V67.9877H17.4655V41.6189C17.5008 39.9505 17.4299 38.2815 17.253 36.6221H17.4155C17.7249 37.4189 18.1155 38.1846 18.5718 38.9002L37.3218 67.9689H42.5468V31.5283H38.2999V57.1627C38.2499 58.9533 38.3499 60.7439 38.5593 62.5189H38.4624C37.9954 61.6895 37.5014 60.8755 36.9812 60.0783L18.7343 31.5314L13.1999 31.5283ZM52.003 31.5283V67.9877H71.3874L71.403 63.9846H56.3624V51.3377H69.5312V47.4971H56.3624V35.3877H70.4905V31.5314L52.003 31.5283ZM74.6593 31.5283V35.3846H85.1405V67.9846H89.4062V35.3846H100.003V31.5283H74.6593ZM2.71866 62.7783C2.35992 62.7877 2.00671 62.8689 1.67985 63.017C1.35299 63.1652 1.0591 63.3773 0.815537 63.6408C0.291594 64.1755 -0.000355338 64.8953 0.00303666 65.6439C-0.00184768 66.2044 0.160631 66.7535 0.469673 67.2211C0.778715 67.6886 1.22026 68.0533 1.73778 68.2684C2.2553 68.4835 2.82524 68.5393 3.37466 68.4286C3.92407 68.3179 4.42795 68.0458 4.82179 67.6471C5.35929 67.1252 5.66866 66.3939 5.66866 65.6439C5.66866 64.8939 5.35929 64.1627 4.82179 63.6408C4.56482 63.3675 4.25441 63.1498 3.90982 63.0015C3.56524 62.8531 3.19383 62.7771 2.81866 62.7783H2.72179H2.71866Z" fill="black"/>
</g>
<defs>
<clipPath id="clip0">
<rect width="100" height="100" fill="white"/>
</clipPath>
</defs>
</svg>
