<svg width="100" height="100" viewBox="0 0 100 100" fill="none" xmlns="http://www.w3.org/2000/svg">
<path d="M4.84951 58.1374H0.0307617V41.9249H8.34639L17.8995 54.0343V41.9249H22.7183V58.1374H14.5651L4.84951 45.8312V58.1374ZM45.7339 53.1249C45.7339 55.3718 45.3276 56.153 44.6589 56.8999C43.6495 58.0062 42.1683 58.3499 39.3026 58.3499H31.0839C28.2183 58.3499 26.737 58.0093 25.712 56.8999C25.0433 56.1499 24.637 55.3874 24.637 53.1249V46.8749C24.637 44.628 25.0433 43.8468 25.712 43.1155C26.737 41.9937 28.2183 41.6655 31.0839 41.6655H39.3026C42.1495 41.6655 43.6495 41.9905 44.6589 43.1155C45.3276 43.8468 45.7339 44.628 45.7339 46.8905V53.1249ZM39.0933 54.2468C40.1995 54.2468 40.5745 54.1812 40.8526 53.9374C41.0964 53.7093 41.212 53.4343 41.212 52.4718V47.5249C41.212 46.5812 41.0995 46.2874 40.8526 46.0749C40.5745 45.8312 40.2026 45.7655 39.0933 45.7655H31.2808C30.1901 45.7655 29.7995 45.8312 29.5401 46.0749C29.2808 46.2874 29.1808 46.578 29.1808 47.5249V52.4718C29.1808 53.4312 29.2933 53.7093 29.5401 53.9374C29.7995 54.1812 30.1901 54.2468 31.2808 54.2468H39.0933ZM52.7339 41.928V58.1405H47.7058V41.928H52.7339ZM61.2308 41.928H67.8558L58.9026 49.5124L69.0089 58.1374H61.8964L52.7339 49.6905L61.2308 41.9437V41.928ZM69.937 41.9437H74.9651V58.1374H69.937V41.9437ZM94.1401 58.1374L92.6433 55.3218H82.9089L81.4433 58.1374H75.8933L84.7964 41.9249H91.0464L99.9651 58.1374H94.137H94.1401ZM84.6683 51.8061H90.9183L87.7933 45.9312L84.6683 51.8061Z" fill="black"/>
</svg>
