<svg width="100" height="100" viewBox="0 0 100 100" fill="none" xmlns="http://www.w3.org/2000/svg">
<path d="M25.7808 32.6104L19.0151 34.0479L18.9839 56.2978C18.9839 60.4072 22.0776 63.0635 26.187 63.0635C28.4683 63.0635 30.1401 62.6416 31.062 62.1416V56.8603C30.1714 57.2197 25.7964 58.501 25.7964 54.4072V44.5322H31.062V38.626H25.7964L25.7808 32.6104ZM39.7026 40.6729L39.2808 38.626H33.2808V62.5635H40.2026V46.4541C41.8433 44.2979 44.6089 44.7197 45.4995 45.001V38.626C44.562 38.2979 41.3276 37.6885 39.7026 40.6729ZM54.1245 29.376L47.1558 30.8604V36.5166L54.1245 35.0322V29.376ZM7.01514 45.6729C7.01514 44.5947 7.92139 44.1729 9.37451 44.1572C11.4839 44.1572 14.1714 44.7979 16.2808 45.9385V39.4072C14.0854 38.5507 11.7466 38.1211 9.39014 38.1416C3.76514 38.1416 0.0151367 41.0791 0.0151367 45.9854C0.0151367 53.6729 10.562 52.4228 10.562 55.7353C10.562 57.0166 9.45264 57.4385 7.90576 57.4385C5.60889 57.4385 2.64014 56.4854 0.312012 55.2197V61.4697C2.89014 62.5791 5.49951 63.0478 7.89014 63.0478C13.6558 63.0478 17.6245 60.5791 17.6245 55.5791C17.6245 47.3135 7.01514 48.7978 7.01514 45.6729ZM99.9995 50.876C99.9995 43.7666 96.562 38.1572 89.9683 38.1572C83.3745 38.1572 79.3589 43.7666 79.3589 50.8291C79.3589 59.1885 84.0933 63.0478 90.8433 63.0478C94.1558 63.0478 96.6401 62.2979 98.5308 61.251V56.0322C96.6401 56.9854 94.4683 57.5635 91.7183 57.5635C89.0151 57.5635 86.6401 56.6104 86.3276 53.3604H99.9058C99.937 53.001 99.9995 51.5479 99.9995 50.876ZM86.2651 48.251C86.2651 45.126 88.187 43.8135 89.9214 43.8135C91.6245 43.8135 93.437 45.126 93.437 48.251H86.2651ZM68.6245 38.1572C65.9058 38.1572 64.1558 39.4385 63.187 40.3291L62.8276 38.6104H56.7183V70.6103L63.6558 69.1416L63.6714 61.2978C64.6714 62.0322 66.1558 63.0478 68.5776 63.0478C73.5464 63.0478 78.0776 59.4228 78.0776 50.6103C78.0933 42.5479 73.4995 38.1572 68.6245 38.1572ZM66.9683 57.2978C65.3433 57.2978 64.3745 56.7041 63.7026 55.9854L63.6558 45.6729C64.3745 44.876 65.3745 44.2979 66.9683 44.2979C69.4995 44.2979 71.2495 47.1416 71.2495 50.7666C71.2651 54.501 69.5464 57.2978 66.9683 57.2978ZM47.1714 62.5635H54.1401V38.626H47.1714V62.5635Z" fill="black"/>
</svg>
