<svg width="100" height="100" viewBox="0 0 100 100" fill="none" xmlns="http://www.w3.org/2000/svg">
<g clip-path="url(#clip0)">
<path d="M32.8467 48.388C32.8467 40.3974 26.7092 32.1287 16.2936 32.1287C8.28418 32.1287 0.00292969 38.2662 0.00292969 48.6662C0.00292969 56.6568 6.14043 64.9412 16.5561 64.9412C19.956 64.9244 23.2664 63.8497 26.0279 61.8662L30.8436 66.6662L32.9779 64.5318L28.4373 59.9912C31.2373 56.9318 32.8498 52.9287 32.8498 48.388H32.8467ZM16.2904 35.0599C23.8904 35.0599 29.9154 40.9349 29.9154 48.5349C29.9154 55.063 24.8373 61.9974 16.4186 61.9974C8.00606 61.9974 2.92793 55.1943 2.92793 48.6693C2.92793 40.1412 9.7498 35.0599 16.2904 35.0599ZM40.7217 41.6005H43.5217V64.2599H40.7217V41.6005ZM42.0592 38.5255C41.7337 38.5422 41.4082 38.4924 41.1026 38.3793C40.797 38.2662 40.5175 38.0921 40.2813 37.8676C40.045 37.6431 39.8569 37.3729 39.7284 37.0734C39.5998 36.7739 39.5335 36.4514 39.5335 36.1255C39.5335 35.7996 39.5998 35.4771 39.7284 35.1777C39.8569 34.8782 40.045 34.608 40.2813 34.3835C40.5175 34.159 40.797 33.9849 41.1026 33.8718C41.4082 33.7587 41.7337 33.7089 42.0592 33.7255C43.3936 33.7255 44.4686 34.8005 44.4686 36.1349C44.4686 37.4693 43.3936 38.5255 42.0592 38.5255ZM53.3998 38.5255C53.0843 38.528 52.7714 38.468 52.4792 38.349C52.187 38.2299 51.9212 38.0542 51.6972 37.832C51.4733 37.6098 51.2955 37.3454 51.1742 37.0541C51.0529 36.7628 50.9904 36.4504 50.9904 36.1349C50.99 35.8184 51.0521 35.5049 51.173 35.2124C51.2939 34.9199 51.4714 34.6541 51.6952 34.4303C51.919 34.2065 52.1848 34.029 52.4773 33.9081C52.7698 33.7872 53.0833 33.7251 53.3998 33.7255C54.7373 33.7255 55.8123 34.8005 55.8123 36.1349C55.8123 37.4693 54.7373 38.5255 53.3998 38.5255ZM52.0654 41.6005H54.8811V64.2599H52.0654V41.6005ZM71.6967 64.6662C66.4873 64.6662 63.4123 60.663 63.4123 56.6755V35.3349H66.2279V41.6005H76.1061V44.4005H66.2279V56.8037C66.2279 59.3255 68.2279 61.9943 71.6936 61.9943C72.6217 61.9943 73.5654 61.7318 74.3654 61.1974L74.6248 61.063L75.9592 63.4537L75.6998 63.6037C74.472 64.2784 73.0975 64.6421 71.6967 64.663V64.6662ZM90.2498 64.7974C82.6498 64.7974 78.1092 58.8068 78.1092 52.9318C78.1092 45.3318 84.1186 40.7912 89.9936 40.7912C93.0686 40.7912 95.4592 41.8662 97.2029 43.8662V41.6037H100.003V64.263H97.2029V61.738C95.5904 63.7412 93.1998 64.8005 90.2529 64.8005L90.2498 64.7974ZM89.9904 43.6037C85.4498 43.6037 80.9061 47.0693 80.9061 52.9287C80.9061 57.4693 84.3717 61.9943 90.2467 61.9943C91.5998 61.9955 92.9364 61.6969 94.1603 61.1198C95.3841 60.5427 96.4649 59.7015 97.3248 58.6568V46.9224C96.4176 45.8677 95.2908 45.0239 94.0234 44.4501C92.756 43.8763 91.3785 43.5863 89.9873 43.6005L89.9904 43.6037Z" fill="black"/>
</g>
<defs>
<clipPath id="clip0">
<rect width="100" height="100" fill="white"/>
</clipPath>
</defs>
</svg>
