<svg width="100" height="100" viewBox="0 0 100 100" fill="none" xmlns="http://www.w3.org/2000/svg">
<g clip-path="url(#clip0)">
<path d="M32.8597 44.4069C32.4686 42.584 31.464 40.9505 30.0138 39.7789C28.5635 38.6074 26.7553 37.9686 24.891 37.9694H19.1097C18.6003 37.9616 18.103 38.1253 17.6977 38.4342C17.2925 38.743 17.0029 39.1792 16.8754 39.6725L11.4222 60.0006L15.2816 59.985C15.7826 59.9843 16.2699 59.8209 16.67 59.5194C17.0702 59.2179 17.3616 58.7945 17.5004 58.3131L21.5316 43.36H24.6254C25.4003 43.36 26.1435 43.6678 26.6914 44.2158C27.2394 44.7638 27.5472 45.5069 27.5472 46.2819C27.5472 47.0568 27.2394 47.8 26.6914 48.348C26.1435 48.8959 25.4003 49.2038 24.6254 49.2038H23.016C21.9222 49.2038 21.0629 49.9225 20.7816 50.8913L19.7816 54.61H24.7816C30.5941 54.61 33.891 48.9538 32.8597 44.4069ZM8.40662 48.7819H11.3129C12.391 48.7819 13.2504 48.0944 13.5472 47.0788L14.516 43.3913H8.266C4.68787 43.3913 1.40662 45.5944 0.265998 49.8131C-0.0514391 51.0153 -0.0883904 52.2744 0.157996 53.4932C0.404383 54.7119 0.927518 55.8577 1.68702 56.8422C2.44653 57.8267 3.42209 58.6235 4.53842 59.1712C5.65474 59.7188 6.88197 60.0026 8.12537 60.0006H10.0629L11.1722 55.9225C11.2144 55.7694 11.2204 55.6086 11.1897 55.4528C11.1591 55.297 11.0927 55.1504 10.9957 55.0247C10.8987 54.8989 10.7739 54.7974 10.631 54.7282C10.4881 54.6589 10.331 54.6238 10.1722 54.6256H8.40662C4.54725 54.6256 4.516 48.7819 8.40662 48.7819V48.7819ZM47.0785 43.3444H34.9066L34.3597 45.4381C33.9847 46.9381 35.0629 48.3288 36.5785 48.3288H45.5629C46.1879 48.3288 45.9379 49.0006 45.891 49.1569L44.5472 54.1256C44.4847 54.3444 44.4066 54.9537 43.6879 54.9537H38.2347C37.4066 54.9537 37.4066 53.7194 38.2347 53.7194H41.6097C42.6722 53.7194 43.5316 53.0006 43.8285 52.0319L44.3754 49.9694H36.8129C30.6879 49.9694 30.0004 59.9381 36.7035 59.9381L45.6879 59.9694C47.4379 59.9694 48.9066 58.8444 49.3441 57.1881L51.5316 49.0944C52.2816 46.0944 50.016 43.3444 47.0785 43.3444V43.3444ZM98.9222 37.9694H95.9691C95.2035 37.9694 94.5316 38.4694 94.3441 39.2038L88.7816 60.0006C92.016 60.0006 95.0004 57.8444 95.7972 54.61L99.9379 39.2663C99.9818 39.1118 99.9886 38.9491 99.9577 38.7915C99.9268 38.6339 99.8591 38.4858 99.7601 38.3594C99.661 38.2329 99.5335 38.1317 99.3879 38.0639C99.2423 37.9961 99.0828 37.9637 98.9222 37.9694V37.9694ZM62.0004 43.3913V43.4069H54.4535L50.3597 58.7194C50.1722 59.4069 50.7035 60.0162 51.3597 60.0162H54.3129C55.0629 60.0162 55.7504 59.5475 55.9379 58.7975L58.6254 48.7975H61.7191C63.6722 48.7975 65.0629 50.6413 64.5472 52.4538L62.891 58.7037C62.8454 58.857 62.8368 59.019 62.866 59.1762C62.8952 59.3334 62.9614 59.4815 63.0591 59.6081C63.1567 59.7348 63.2831 59.8364 63.4277 59.9047C63.5724 59.9729 63.7311 60.0058 63.891 60.0006H66.8754C67.5941 60.0006 68.2973 59.5475 68.4848 58.7819L69.8597 53.61C71.266 48.4381 67.3754 43.3913 62.0004 43.3913V43.3913ZM77.3597 55.0475C76.7972 55.0475 76.4222 54.5163 76.5629 54.0006L77.8129 49.3131C77.9535 48.7038 78.391 48.3756 79.0316 48.3756H84.1722C84.5785 48.3756 84.891 48.7506 84.7816 49.1725L84.6722 49.5788C84.5785 49.8913 84.3754 50.0475 84.0629 50.0475H80.6879C79.5941 50.0475 78.7191 50.7663 78.4691 51.735L77.9222 53.7663H86.266C87.9066 53.7663 89.4379 52.735 89.891 51.0163L90.391 49.1413C90.5737 48.4636 90.5976 47.753 90.4608 47.0646C90.324 46.3763 90.0303 45.7287 89.6025 45.1724C89.1746 44.6161 88.6242 44.1659 87.9941 43.857C87.3639 43.5481 86.6709 43.3887 85.9691 43.3913H78.5785C75.7816 43.3913 73.2972 45.2663 72.5472 48.0163L70.8597 54.2663C70.6773 54.943 70.6536 55.6528 70.7907 56.3402C70.9277 57.0276 71.2217 57.6741 71.6497 58.2292C72.0777 58.7842 72.6282 59.2329 73.2582 59.5402C73.8882 59.8475 74.5807 60.0051 75.2816 60.0006H85.7035C86.2045 59.9999 86.6918 59.8365 87.0919 59.535C87.4921 59.2335 87.7835 58.8102 87.9222 58.3288L88.8129 55.0475H77.3597Z" fill="black"/>
</g>
<defs>
<clipPath id="clip0">
<rect width="100" height="100" fill="white"/>
</clipPath>
</defs>
</svg>
