<svg width="100" height="100" viewBox="0 0 100 100" fill="none" xmlns="http://www.w3.org/2000/svg">
<path d="M91.5625 54.4534L99.8906 45.094H90.1406L86.75 48.969L83.2344 45.094H64.6875V42.594H73.4531V35.0784H49.8281V46.8752H49.75C48.25 45.1565 46.3906 44.5627 44.2187 44.5627C39.7812 44.5627 36.4375 47.594 35.2656 51.5784C32.4531 42.2971 20.0469 42.5784 16.2188 49.3909V45.6096H7.65625V41.5159H17.0312V35.094H0V63.9065H7.65625V51.7971H15.2969C15.0625 52.6877 14.9375 53.6409 14.9375 54.6409C14.9375 66.0627 30.9687 68.9221 35.2812 58.344H28.7187C26.4219 61.6096 21.5625 59.7346 21.5625 56.0627H34.9219C35.5 60.8284 39.2031 64.9534 44.3125 64.9534C46.5156 64.9534 48.5313 63.8752 49.7656 62.0471H49.8437V63.9065H83L86.4531 60.0002L89.9375 63.9065H100L91.5625 54.4534ZM21.7656 51.8596C22.7188 47.7502 28.2812 47.8596 29.0312 51.8596H21.7656ZM45.7344 59.5002C40.3281 59.5002 40.4219 49.6877 45.7344 49.6877C50.8281 49.6877 51.125 59.5002 45.7344 59.5002ZM71.9531 62.4846H57.2031V36.469H72.0469V41.1877H63.2812V46.4846H71.9531V50.8752H63.1875V57.8596H71.9531V62.4846ZM64.7812 56.2659V52.4534H73.5469V45.5784L81.4687 54.4846L73.5469 63.3909V56.2659H64.7812ZM86.4375 57.8752L82.3594 62.4846H76.4063L83.5312 54.4846L76.4063 46.4846H82.6094L86.7656 51.0627L90.7656 46.4846H96.7812L89.6875 54.4534L96.875 62.4846H90.5469L86.4375 57.8752Z" fill="black"/>
</svg>
