<svg width="140" height="140" viewBox="0 0 140 140" fill="none" xmlns="http://www.w3.org/2000/svg">
<path d="M103.749 66.5618H97.7769C97.7769 65.9931 97.6631 65.4462 97.4794 64.8993C97.2463 64.3096 96.8834 63.78 96.4176 63.3498C95.9518 62.9196 95.3951 62.5999 94.7887 62.4143C93.0478 61.8587 91.1713 61.8987 89.4556 62.5281C87.9987 63.0531 86.8569 64.2124 86.3319 65.6956C85.3915 68.3689 85.312 71.2697 86.1044 73.9906C86.5375 75.5612 87.7012 76.8387 89.2281 77.4074C91.0555 78.0974 93.0617 78.1529 94.9244 77.5649C95.4768 77.3848 95.9854 77.0908 96.4172 76.702C96.849 76.3131 97.1944 75.838 97.4313 75.3074C97.7506 74.5768 97.9081 73.8024 97.8863 73.0062H103.902C103.858 73.6887 103.766 74.3756 103.626 75.0581C103.101 77.1756 101.596 78.9781 99.6144 79.7962C95.4542 81.5661 90.7972 81.7849 86.4894 80.4131C83.7112 79.5468 81.2919 77.5431 80.3381 74.8087C79.83 73.3272 79.5684 71.7724 79.5638 70.2062C79.5638 67.9487 79.975 65.7612 81.0469 63.9412C82.1813 62.0603 83.9146 60.6151 85.9688 59.8374C90.3438 58.1968 95.1956 58.3106 99.4831 60.2006C101.579 61.1106 103.084 62.9568 103.561 65.1924C103.652 65.6256 103.718 66.1024 103.744 66.5618H103.749ZM80.5481 80.7806H74.1913L72.3231 76.1562H61.635C61.635 76.1562 59.7887 80.7806 59.7669 80.7806H53.41L63.4813 59.2249C63.4813 59.2468 70.4769 59.2249 70.4769 59.2249L80.5481 80.7806ZM112.521 80.7806H106.824C106.824 80.7806 106.868 59.2249 106.824 59.2249H112.521V67.8612H124.049V59.2249H129.767C129.767 59.2249 129.789 80.7368 129.767 80.7806H124.049V71.2999C124.049 71.3218 112.521 71.2999 112.521 71.2999C112.542 71.3218 112.521 80.7543 112.521 80.7806ZM5.71813 80.7806H0C0 80.7806 0.021875 59.2249 0 59.2249H5.71813C5.71813 59.2249 5.69625 67.9049 5.71813 67.8612H17.2244C17.2244 67.8831 17.2025 59.2249 17.2244 59.2249H22.9425C22.9425 59.2249 22.9644 80.7368 22.9425 80.7806H17.2244V71.2999C17.2244 71.3218 5.71813 71.2999 5.71813 71.2999C5.71813 71.3218 5.69625 80.7806 5.71813 80.7806ZM49.6519 80.7806H43.9338V62.8912H35.2056C35.2056 62.8912 35.2275 59.2468 35.2056 59.2206C35.2275 59.2424 58.38 59.2206 58.38 59.2206V62.8912H49.6519V80.7806ZM27.4794 59.2206H33.1756V80.7762H27.4794V59.2206ZM134.282 59.2206H140V80.7762H134.282V59.2206ZM66.9944 62.8912L63.0306 72.6912H70.9625L66.9944 62.8912Z" fill="black"/>
</svg>
