<svg width="100" height="100" viewBox="0 0 100 100" fill="none" xmlns="http://www.w3.org/2000/svg">
<g clip-path="url(#clip0)">
<path d="M82.5688 42.8366L82.7656 54.0522H82.6688L79.4125 42.8366H74.075V56.9647H77.6062L77.4094 45.3584H77.5062L80.9906 56.9647H86.1V42.8366H82.5688ZM15.2844 42.8366L12.6156 57.1116H16.4719L18.4406 44.1241H18.5219L20.4437 57.1116H24.2687L21.6313 42.8366H15.2844ZM36.8656 42.8366L35.1063 53.7241H35.0094L33.2344 42.8366H27.4063L27.1281 57.1116H30.7094L30.8062 44.2709H30.8375L33.2313 57.1116H36.8594L39.2531 44.2709H39.35L39.4469 57.1116H43.0281L42.6875 42.8366H36.8656ZM6.59062 53.0584C6.7375 53.3834 6.6875 53.8709 6.64062 54.0991C6.54375 54.5866 6.2 55.0584 5.25625 55.0584C4.34375 55.0584 3.825 54.5366 3.825 53.7741V52.3897H0V53.4803C0 56.6866 2.52188 57.6303 5.20938 57.6303C7.78125 57.6303 9.92812 56.7366 10.2719 54.3928C10.4688 53.1553 10.3219 52.3428 10.2719 52.0491C9.60312 49.0366 4.15312 48.1928 3.77813 46.5147C3.7277 46.262 3.7277 46.0018 3.77813 45.7491C3.875 45.2772 4.2 44.7897 5.0625 44.7897C5.925 44.7897 6.39687 45.3116 6.39687 46.0741V46.9366H9.97813V45.9428C9.97813 42.8334 7.1625 42.3616 5.15938 42.3616C2.61875 42.3616 0.521875 43.2084 0.146875 45.5022C0.0176276 46.1383 0.0347253 46.7955 0.196875 47.4241C0.765625 50.3709 5.87812 51.2334 6.59375 53.0553L6.59062 53.0584ZM53.0594 53.0584C53.2062 53.3834 53.1563 53.8241 53.1094 54.0991C53.0125 54.5866 52.6688 55.0584 51.725 55.0584C50.8125 55.0584 50.2938 54.5366 50.2938 53.7741V52.3897H46.4688V53.4803C46.4688 56.6366 48.9437 57.5991 51.6281 57.5991C54.2 57.5991 56.3 56.7366 56.6406 54.3428C56.8375 53.1053 56.6906 52.3397 56.6406 51.9991C56.0719 49.0366 50.6688 48.1428 50.2938 46.5147C50.2433 46.262 50.2433 46.0018 50.2938 45.7491C50.375 45.2772 50.7156 44.7897 51.5781 44.7897C52.3906 44.7897 52.9125 45.3116 52.9125 46.0741V46.9366H56.4438V45.9428C56.4438 42.8334 53.6781 42.3616 51.675 42.3616C49.1344 42.3616 47.0844 43.1584 46.7094 45.5022C46.6125 46.1209 46.6125 46.7053 46.7406 47.4241C47.3281 50.3709 52.3406 51.1834 53.0563 53.0553L53.0594 53.0584ZM65.0875 54.9647C66.0969 54.9647 66.3719 54.2959 66.4719 53.9241C66.5219 53.7772 66.5219 53.5334 66.5219 53.3866V42.8397H70.15V53.1085C70.15 53.3866 70.15 53.921 70.1 54.0522C69.8719 56.7366 67.7562 57.5991 65.1344 57.5991C62.5125 57.5991 60.4156 56.7366 60.1688 54.0522C60.1688 53.921 60.1188 53.3835 60.1188 53.1085V42.8397H63.7469V53.3866C63.7469 53.5834 63.7469 53.7772 63.7969 53.9241C63.7969 54.2991 64.0906 54.9647 65.0813 54.9647H65.0875ZM94.8906 54.8178C95.95 54.8178 96.275 54.1491 96.3719 53.7772C96.4219 53.6303 96.4219 53.3866 96.4219 53.2553V51.1897H94.9406V49.0897H100.003V52.9147C100.003 53.2084 100.003 53.3866 99.9531 53.8741C99.7094 56.4959 97.4625 57.4053 94.9406 57.4053C92.4 57.4053 90.1719 56.4928 89.9281 53.8741C89.8781 53.3866 89.8781 53.2053 89.8781 52.9147V46.8928C89.8781 46.6647 89.9281 46.1772 89.9281 45.9491C90.2531 43.2647 92.4031 42.4022 94.9406 42.4022C97.4625 42.4022 99.6594 43.2647 99.9531 45.9491C100.003 46.3709 100.003 46.8928 100.003 46.8928V47.3803H96.4219V46.5678C96.4219 46.5678 96.4219 46.2272 96.3719 46.0303C96.3219 45.7053 96.0312 44.9897 94.9406 44.9897C93.8812 44.9897 93.6063 45.6584 93.5094 46.0303C93.4594 46.2272 93.4594 46.4709 93.4594 46.7147V53.2584C93.4594 53.4366 93.4594 53.6334 93.5094 53.7803C93.5094 54.1553 93.8844 54.8209 94.8937 54.8209L94.8906 54.8178Z" fill="black"/>
</g>
<defs>
<clipPath id="clip0">
<rect width="100" height="100" fill="white"/>
</clipPath>
</defs>
</svg>
