<svg width="100" height="100" viewBox="0 0 100 100" fill="none" xmlns="http://www.w3.org/2000/svg">
<g clip-path="url(#clip0)">
<path d="M21.5658 42.383C17.1221 42.383 14.9908 43.1643 14.6814 47.1674C14.6158 48.1111 14.5846 49.0549 14.6002 49.9986C14.6002 50.9111 14.6158 51.8705 14.6814 52.8299C14.9908 56.833 17.1221 57.6143 21.5502 57.6143C25.9939 57.6143 28.1408 56.833 28.4346 52.8299C28.5158 51.8705 28.5314 50.908 28.5314 49.9986C28.5314 49.0893 28.5158 48.1268 28.4346 47.1674C28.1408 43.1643 25.9939 42.383 21.5658 42.383ZM37.3533 42.383C35.6439 42.383 33.9346 42.5455 33.2502 42.8861C31.9002 43.5361 30.9721 44.4643 30.9721 47.133C30.9721 48.6955 31.3939 49.8674 32.1939 50.4518C33.3658 51.3299 34.5064 51.4111 37.6471 51.5736C38.9314 51.6393 39.6158 51.8986 39.6158 52.9893C39.6158 54.3736 38.3939 54.3736 37.2564 54.3736C36.1002 54.3736 35.7439 54.2768 35.3533 53.9674C34.9939 53.708 34.9127 53.2361 34.9127 52.5174H30.9408C30.9408 54.5518 30.9908 56.2111 32.9096 57.0424C34.6189 57.7924 39.8596 57.7924 41.4377 57.0924C42.8064 56.4893 43.7814 55.6924 43.7814 52.958C43.7814 51.0705 43.4064 49.8986 41.9408 49.0361C40.9158 48.4174 38.0033 48.3361 36.5377 48.2393C35.4627 48.1736 35.0564 47.783 35.0564 46.8236C35.0564 45.5861 36.2439 45.5549 37.2689 45.5549C38.1002 45.5549 38.6846 45.6205 39.0908 45.9768C39.2533 46.1393 39.4502 46.3986 39.4658 47.2611H43.4033C43.4033 45.5674 43.3377 43.7299 41.5158 42.883C40.7846 42.558 39.0596 42.3799 37.3502 42.3799L37.3533 42.383ZM46.5502 42.6424V57.3549H50.6846V51.6736H55.5033V57.3549H59.6533V42.6424H55.5033V48.0143H50.6846V42.6424H46.5502ZM63.2971 42.6424V57.3549H67.4814V42.6424H63.2971ZM71.1908 42.6424V57.3549H79.0533C82.6658 57.3549 83.8877 55.7924 83.8877 53.383C83.8877 51.7236 83.4971 50.2424 81.2033 49.6705C83.0596 49.183 83.5971 48.0768 83.5971 46.4799C83.5971 43.258 81.5783 42.6393 78.6814 42.6393L71.1908 42.6424ZM89.4033 42.6424L84.9596 57.3549H89.2721L90.0533 54.6205H94.8877L95.6846 57.3549H99.9971L95.5377 42.6424H89.4033ZM0.000195313 42.6424V46.3205H4.39395V57.3549H8.78769V46.3205H13.1814V42.658H-0.00292969L0.000195313 42.6424ZM21.5658 45.8143C23.3064 45.8143 24.2033 46.0924 24.3158 48.3549C24.3314 48.7143 24.3471 49.1861 24.3471 49.9986C24.3471 50.8111 24.3314 51.283 24.3158 51.6424C24.2033 53.9049 23.3064 54.183 21.5658 54.183C19.8252 54.183 18.9127 53.9049 18.8158 51.6424C18.7804 51.0952 18.77 50.5467 18.7846 49.9986C18.7846 49.1861 18.7846 48.7143 18.8158 48.3549C18.9127 46.0924 19.8252 45.8143 21.5658 45.8143ZM75.3252 46.0111H78.2064C78.9564 46.0111 79.4283 46.3705 79.4283 47.233C79.4283 47.9643 78.9564 48.4049 78.2064 48.4049H75.3252V46.0111ZM92.4658 46.2705H92.4814L93.9627 51.3643H91.0002L92.4658 46.2705ZM75.3408 51.3018H78.2064C79.3783 51.3018 79.6064 51.8236 79.6064 52.6518C79.6064 53.4799 79.1502 53.9861 78.2064 53.9861H75.3252V51.3018H75.3408Z" fill="black"/>
</g>
<defs>
<clipPath id="clip0">
<rect width="100" height="100" fill="white"/>
</clipPath>
</defs>
</svg>
