<svg width="100" height="100" viewBox="0 0 100 100" fill="none" xmlns="http://www.w3.org/2000/svg">
<path d="M84.3906 47.5907C83.926 47.5868 83.4656 47.6786 83.038 47.8605C82.6105 48.0424 82.225 48.3105 81.9057 48.648C81.5864 48.9855 81.34 49.3852 81.1821 49.8222C81.0241 50.2591 80.9579 50.7239 80.9875 51.1876C80.9708 51.6529 81.0474 52.1167 81.2128 52.5519C81.3782 52.9871 81.6291 53.3848 81.9506 53.7214C82.2722 54.0581 82.6579 54.327 83.085 54.5123C83.5121 54.6975 83.972 54.7954 84.4375 54.8001C84.903 54.8024 85.3639 54.7088 85.7917 54.5253C86.2195 54.3418 86.605 54.0723 86.9242 53.7335C87.2434 53.3947 87.4894 52.9938 87.6471 52.5558C87.8048 52.1178 87.8706 51.6521 87.8406 51.1876C87.8556 50.7235 87.7777 50.2611 87.6115 49.8276C87.4453 49.394 87.1941 48.9981 86.8727 48.663C86.5513 48.3279 86.1662 48.0604 85.7399 47.8763C85.3137 47.6922 84.8549 47.5951 84.3906 47.5907ZM57.2594 47.5907C56.7957 47.587 56.3362 47.6792 55.9098 47.8615C55.4834 48.0438 55.0993 48.3122 54.7815 48.6499C54.4637 48.9876 54.2192 49.3874 54.0632 49.8241C53.9072 50.2608 53.8431 50.725 53.875 51.1876C53.857 51.6532 53.9327 52.1176 54.0976 52.5534C54.2626 52.9891 54.5134 53.3873 54.8352 53.7243C55.157 54.0612 55.5432 54.3301 55.9709 54.5149C56.3986 54.6997 56.8591 54.7967 57.325 54.8001C57.7897 54.8025 58.2499 54.709 58.6768 54.5253C59.1037 54.3416 59.488 54.0717 59.8057 53.7326C60.1235 53.3935 60.3677 52.9924 60.5232 52.5544C60.6787 52.1165 60.7421 51.6512 60.7094 51.1876C60.7257 50.7232 60.6487 50.2603 60.4829 49.8261C60.3172 49.392 60.066 48.9955 59.7444 48.6602C59.4227 48.3248 59.0371 48.0574 58.6102 47.8737C58.1834 47.69 57.724 47.5938 57.2594 47.5907ZM28.0594 47.3626C27.5369 47.3465 27.0181 47.4546 26.5455 47.6778C26.0729 47.9011 25.66 48.2332 25.3406 48.647C24.7063 49.5317 24.4489 50.632 24.625 51.7063L30.7781 49.1657C30.553 48.6305 30.175 48.1736 29.6913 47.8523C29.2077 47.531 28.64 47.3596 28.0594 47.3595V47.3626ZM0 33.3345V66.6688H100V33.3345H0ZM20.8656 57.6188H9.27813V40.9532H12.8594V54.3814H20.8687L20.8656 57.6188ZM28.4344 55.0282C29.7844 55.0438 31.1031 54.572 32.1125 53.6595L34.3438 55.3689C32.756 56.9447 30.6089 57.8279 28.3719 57.8251C27.4659 57.9137 26.5513 57.8152 25.6849 57.5358C24.8185 57.2564 24.0187 56.802 23.3352 56.2008C22.6516 55.5996 22.0988 54.8643 21.7111 54.0407C21.3234 53.217 21.109 52.3225 21.0812 51.4126C21.0552 50.5007 21.217 49.5932 21.5566 48.7465C21.8961 47.8997 22.4062 47.1319 23.0551 46.4906C23.7039 45.8494 24.4778 45.3484 25.3284 45.0189C26.1791 44.6894 27.0885 44.5383 28 44.5751C28.9451 44.5297 29.8886 44.693 30.7635 45.0532C31.6384 45.4134 32.4233 45.9618 33.0625 46.6595C33.9094 47.6845 34.4469 48.922 34.6094 50.2407L25.5937 54.0001C26.3594 54.7001 27.3844 55.0751 28.4406 55.0251L28.4344 55.0282ZM48.7781 57.6188H45.2469V50.3095C45.2329 49.9365 45.1448 49.57 44.9878 49.2313C44.8307 48.8927 44.6078 48.5887 44.3321 48.3371C44.0563 48.0855 43.7332 47.8913 43.3817 47.7659C43.0301 47.6404 42.6571 47.5862 42.2844 47.6063C41.9136 47.5839 41.5422 47.6369 41.1925 47.7621C40.8428 47.8873 40.5221 48.0822 40.2499 48.3349C39.9776 48.5875 39.7594 48.8928 39.6085 49.2322C39.4576 49.5716 39.3771 49.9381 39.3719 50.3095V57.6188H35.8563V44.7782H39.3875V46.6188C39.8825 45.9853 40.5143 45.4719 41.2356 45.1169C41.9569 44.7619 42.7492 44.5746 43.5531 44.5688C44.2374 44.5307 44.9221 44.6355 45.5637 44.8764C46.2053 45.1174 46.7896 45.4893 47.2797 45.9684C47.7697 46.4475 48.1546 47.0234 48.4099 47.6594C48.6652 48.2955 48.7852 48.9776 48.7625 49.6626L48.7781 57.6188ZM57.0469 57.8282C51.2031 57.5845 48.5031 50.4564 52.7344 46.4032C56.95 42.3657 63.9656 45.3438 63.9656 51.1876C63.9625 52.0824 63.7793 52.9675 63.4269 53.79C63.0746 54.6125 62.5603 55.3558 61.9147 55.9754C61.2692 56.595 60.5055 57.0784 59.6692 57.3967C58.8329 57.715 57.9411 57.8618 57.0469 57.8282ZM68.7 57.6001L63.425 44.7751H67.4438L70.6344 53.5313L73.825 44.7751H77.8438L72.5531 57.6001H68.7ZM84.1625 57.8282C78.3344 57.5845 75.6344 50.4564 79.85 46.4032C84.0813 42.3657 91.0813 45.3438 91.0813 51.1876C91.0794 52.0828 90.8971 52.9684 90.5452 53.7916C90.1933 54.6147 89.6791 55.3585 89.0332 55.9784C88.3874 56.5983 87.6232 57.0816 86.7863 57.3994C85.9494 57.7172 85.057 57.8631 84.1625 57.8282ZM92.4969 56.0876H91.9094V57.6188H91.5687V56.0876H91V55.7626H92.4969V56.0876ZM94.7594 57.6188H94.4188V56.3001L93.85 57.1938H93.8L93.2312 56.3001V57.6188H92.8906V55.7626H93.2656L93.8187 56.6407L94.3719 55.7626H94.7469L94.7594 57.6188Z" fill="black"/>
</svg>
