<svg width="150" height="150" viewBox="0 0 150 150" fill="none" xmlns="http://www.w3.org/2000/svg">
<path d="M47.9531 60.1696L30.375 50.0165C29.5486 49.5415 28.6115 49.2931 27.6584 49.2964C26.7053 49.2997 25.7699 49.5546 24.9469 50.0352L24.9656 50.0165L7.3875 60.1696C6.5689 60.6466 5.88914 61.3291 5.41555 62.1497C4.94196 62.9702 4.69099 63.9003 4.6875 64.8477V85.1446C4.6875 87.1415 5.76563 88.8805 7.36875 89.8133L7.3875 89.8321L24.9656 99.9758C25.7923 100.454 26.7307 100.705 27.6856 100.703C28.6406 100.702 29.5781 100.447 30.4031 99.9665L30.375 99.9758L47.9531 89.8321C49.5844 88.8805 50.6531 87.1415 50.6625 85.1446V64.8571C50.6609 63.9115 50.4128 62.9827 49.9426 62.1623C49.4724 61.3419 48.7964 60.6583 47.9813 60.179L47.9531 60.1696ZM47.0578 85.1446C47.0597 85.46 46.9779 85.7703 46.8206 86.0438C46.6633 86.3172 46.4362 86.5439 46.1625 86.7008L46.1531 86.7102L28.575 96.854C28.3023 97.0195 27.9893 97.107 27.6703 97.107C27.3513 97.107 27.0384 97.0195 26.7656 96.854H26.775L9.19688 86.7102C8.92376 86.5503 8.69735 86.3216 8.54025 86.0469C8.38314 85.7722 8.30084 85.4611 8.30156 85.1446V64.8571C8.30156 64.1868 8.65781 63.6102 9.1875 63.3008L9.19688 63.2915L26.775 53.1477C27.0481 52.9832 27.3609 52.8962 27.6797 52.8962C27.9985 52.8962 28.3113 52.9832 28.5844 53.1477H28.575L46.1531 63.2915C46.429 63.4491 46.658 63.677 46.817 63.9521C46.9759 64.2271 47.059 64.5394 47.0578 64.8571V85.1446Z" fill="black"/>
<path d="M38.047 80.8782H36.7579C36.4495 80.8792 36.1463 80.9582 35.8767 81.1079L35.886 81.0985L28.1048 85.3735L19.1048 80.1844V69.8298L28.0954 64.6407L35.8954 68.8969C36.1601 69.0409 36.4566 69.1166 36.7579 69.1173H38.047C38.2853 69.1173 38.514 69.0232 38.6834 68.8556C38.8528 68.688 38.9492 68.4602 38.9517 68.2219V66.9938C38.9502 66.8328 38.9061 66.6751 38.8237 66.5367C38.7414 66.3983 38.6238 66.2843 38.4829 66.2063L29.8298 61.4719C29.2995 61.1818 28.7046 61.0303 28.1001 61.0313C27.4596 61.0274 26.8298 61.1958 26.2767 61.5188L26.2954 61.5094L17.2954 66.7079C16.7509 67.026 16.2983 67.4801 15.9819 68.0257C15.6656 68.5713 15.4963 69.1897 15.4907 69.8204V80.1844C15.4921 80.8148 15.6586 81.4339 15.9735 81.98C16.2885 82.526 16.741 82.9801 17.286 83.2969L17.2954 83.3063L26.2954 88.4954C26.8355 88.8044 27.4461 88.9692 28.0683 88.9742C28.6905 88.9791 29.3036 88.8239 29.8485 88.5235L29.8298 88.5329L38.4735 83.7891C38.6161 83.7107 38.7349 83.5953 38.8174 83.4551C38.8999 83.3148 38.943 83.155 38.9423 82.9923V81.7735C38.941 81.5364 38.8463 81.3094 38.6787 81.1418C38.5111 80.9741 38.284 80.8794 38.047 80.8782Z" fill="black"/>
<path d="M80.7425 64.3594C78.9518 64.3619 77.2351 65.0743 75.9689 66.3405C74.7027 67.6067 73.9903 69.3234 73.9878 71.1141V78.9047C73.9878 80.6974 74.6999 82.4167 75.9676 83.6843C77.2352 84.9519 78.9545 85.6641 80.7472 85.6641C82.5399 85.6641 84.2591 84.9519 85.5268 83.6843C86.7944 82.4167 87.5065 80.6974 87.5065 78.9047V71.1141C87.5065 67.3875 84.4784 64.3594 80.7519 64.3594H80.7425ZM83.8972 78.9094C83.9206 79.3381 83.8563 79.7671 83.7083 80.1702C83.5603 80.5733 83.3317 80.942 83.0365 81.2538C82.7413 81.5655 82.3856 81.8139 81.9912 81.9836C81.5967 82.1533 81.1719 82.2408 80.7425 82.2408C80.3131 82.2408 79.8882 82.1533 79.4938 81.9836C79.0994 81.8139 78.7437 81.5655 78.4484 81.2538C78.1532 80.942 77.9246 80.5733 77.7766 80.1702C77.6287 79.7671 77.5644 79.3381 77.5878 78.9094V71.1188C77.5878 70.2821 77.9202 69.4797 78.5118 68.8881C79.1034 68.2964 79.9058 67.9641 80.7425 67.9641C81.5792 67.9641 82.3816 68.2964 82.9732 68.8881C83.5648 69.4797 83.8972 70.2821 83.8972 71.1188V78.9094Z" fill="black"/>
<path d="M64.2129 67.9969C64.6242 67.9422 65.0422 67.9692 65.443 68.0763C65.8438 68.1835 66.2196 68.3686 66.5488 68.6211C66.8779 68.8737 67.154 69.1887 67.3613 69.5481C67.5686 69.9075 67.7029 70.3042 67.7566 70.7156L67.766 70.7344C67.7788 70.8417 67.8309 70.9404 67.9123 71.0114C67.9937 71.0824 68.0986 71.1207 68.2066 71.1188H70.9254C70.9859 71.1194 71.0459 71.1079 71.1019 71.0851C71.1579 71.0622 71.2088 71.0284 71.2516 70.9856C71.2944 70.9428 71.3282 70.8919 71.3511 70.8359C71.3739 70.7799 71.3854 70.7199 71.3848 70.6594C71.3848 70.65 71.3848 70.6313 71.3754 70.6219C71.2477 68.9199 70.4818 67.3289 69.231 66.1677C67.9802 65.0064 66.3369 64.3605 64.6301 64.3594C64.5129 64.3594 64.4004 64.3594 64.2832 64.3688H64.302C60.6691 64.5422 57.8848 67.6828 57.8848 71.3156V78.7125C57.8848 82.3453 60.6691 85.4766 64.302 85.6594L64.6301 85.6688C68.1926 85.6688 71.1129 82.9219 71.3754 79.425L71.3848 79.3969V79.3594C71.3848 79.2392 71.3377 79.1237 71.2535 79.0378C71.1694 78.9519 71.055 78.9025 70.9348 78.9H68.216H68.2066C68.0983 78.9024 67.9944 78.9434 67.9136 79.0155C67.8329 79.0877 67.7805 79.1864 67.766 79.2938C67.7135 79.7081 67.5794 80.108 67.3715 80.4702C67.1637 80.8325 66.8862 81.1501 66.555 81.4046C66.2238 81.6591 65.8455 81.8455 65.4419 81.953C65.0383 82.0606 64.6174 82.0872 64.2035 82.0313H64.2223C63.4583 81.9138 62.7615 81.527 62.2577 80.9407C61.754 80.3544 61.4765 79.6074 61.4754 78.8344V71.2266V71.1703C61.4754 69.5672 62.6566 68.2313 64.2035 67.9828H64.2223L64.2129 67.9969Z" fill="black"/>
<path d="M101.559 76.786C103.481 75.9047 104.788 74.0016 104.798 71.7985V70.1344C104.798 67.1063 102.346 64.6594 99.3228 64.6594H91.6775C91.5582 64.6594 91.4437 64.7068 91.3593 64.7912C91.275 64.8756 91.2275 64.9901 91.2275 65.1094V84.9375C91.2275 85.186 91.4291 85.3875 91.6775 85.3875H94.3775C94.4969 85.3875 94.6113 85.3401 94.6957 85.2557C94.7801 85.1713 94.8275 85.0569 94.8275 84.9375V77.2735H97.8135L101.385 85.1204C101.42 85.2005 101.478 85.2685 101.551 85.316C101.625 85.3635 101.71 85.3884 101.798 85.3875H104.765C104.884 85.3875 104.999 85.3401 105.083 85.2557C105.168 85.1713 105.215 85.0569 105.215 84.9375C105.217 84.8704 105.201 84.8039 105.168 84.7454L105.178 84.7547L101.559 76.786ZM101.193 71.7938C101.189 72.2891 100.99 72.7629 100.639 73.1122C100.288 73.4615 99.8134 73.6582 99.3182 73.6594H94.8791V68.2501H99.3182C100.354 68.2501 101.184 69.0938 101.184 70.1157L101.193 71.7938Z" fill="black"/>
<path d="M120.521 64.645H108.803C108.683 64.645 108.569 64.6924 108.484 64.7768C108.4 64.8612 108.353 64.9757 108.353 65.095V84.9325C108.353 85.1809 108.554 85.3825 108.803 85.3825H120.521C120.641 85.3825 120.755 85.3351 120.839 85.2507C120.924 85.1663 120.971 85.0519 120.971 84.9325V82.2231C120.971 82.1038 120.924 81.9893 120.839 81.9049C120.755 81.8206 120.641 81.7731 120.521 81.7731H111.962V76.3638H117.821C117.941 76.3638 118.055 76.3164 118.139 76.232C118.224 76.1476 118.271 76.0331 118.271 75.9138V73.2138C118.271 73.0944 118.224 72.98 118.139 72.8956C118.055 72.8112 117.941 72.7638 117.821 72.7638H111.962V68.2497H120.521C120.641 68.2497 120.755 68.2023 120.839 68.1179C120.924 68.0335 120.971 67.9191 120.971 67.7997V65.0997C120.971 64.9804 120.924 64.8659 120.839 64.7815C120.755 64.6971 120.641 64.6497 120.521 64.6497V64.645Z" fill="black"/>
<path d="M137.648 64.645H134.948C134.829 64.645 134.715 64.6924 134.63 64.7768C134.546 64.8612 134.498 64.9757 134.498 65.095V75.4403C134.498 76.2783 134.166 77.0818 133.573 77.6743C132.981 78.2668 132.177 78.5997 131.339 78.5997C130.501 78.5997 129.698 78.2668 129.105 77.6743C128.513 77.0818 128.18 76.2783 128.18 75.4403V65.095C128.18 65.0359 128.168 64.9774 128.145 64.9228C128.123 64.8682 128.09 64.8186 128.048 64.7768C128.006 64.735 127.956 64.7019 127.902 64.6793C127.847 64.6567 127.789 64.645 127.73 64.645H125.03C124.91 64.645 124.796 64.6924 124.711 64.7768C124.627 64.8612 124.58 64.9757 124.58 65.095V75.3044L124.57 75.4403C124.57 77.2343 125.283 78.9547 126.551 80.2232C127.82 81.4918 129.54 82.2044 131.334 82.2044C133.128 82.2044 134.849 81.4918 136.117 80.2232C137.386 78.9547 138.098 77.2343 138.098 75.4403C138.098 75.3935 138.098 75.3466 138.089 75.3044V65.095C138.089 64.9757 138.042 64.8612 137.957 64.7768C137.873 64.6924 137.758 64.645 137.639 64.645H137.648Z" fill="black"/>
<path d="M142.155 64.645H144.864C145.112 64.645 145.314 64.8466 145.314 65.095V81.3278C145.314 81.3869 145.302 81.4454 145.28 81.5C145.257 81.5546 145.224 81.6042 145.182 81.646C145.14 81.6878 145.091 81.721 145.036 81.7436C144.982 81.7662 144.923 81.7778 144.864 81.7778H142.155C142.095 81.7778 142.037 81.7662 141.982 81.7436C141.928 81.721 141.878 81.6878 141.836 81.646C141.795 81.6042 141.761 81.5546 141.739 81.5C141.716 81.4454 141.705 81.3869 141.705 81.3278V65.095C141.705 64.8466 141.906 64.645 142.155 64.645Z" fill="black"/>
</svg>
