<svg width="100" height="100" viewBox="0 0 100 100" fill="none" xmlns="http://www.w3.org/2000/svg">
<g clip-path="url(#clip0)">
<path d="M69.2375 57.975C64.9406 57.975 63.2812 54.0187 63.2812 50C63.2812 45.9312 64.9406 41.975 69.2375 41.975C73.5188 41.975 75.1937 45.9312 75.1937 50C75.1937 54.0187 73.5188 57.975 69.2375 57.975ZM69.2375 37.9562C62.45 37.9562 58.5437 43.0344 58.5437 50C58.5437 56.9656 62.45 62.0437 69.2375 62.0437C76.0094 62.0437 79.9312 56.9656 79.9312 50C79.9312 43.0344 76.0094 37.9562 69.2375 37.9562ZM0 38.6062H17.025V42.6594H4.75313V47.6875H16.1938V51.6594H4.75313V57.2906H17.025V61.3594H0V38.6062ZM28.0438 50.4562H23.7469V42.6594H28.0438C30.9906 42.6594 32.975 43.9625 32.975 46.5812C32.975 49.1687 30.9906 50.4562 28.0438 50.4562ZM19.0094 61.3437H23.7625V54.525H28.0438C33.8063 54.525 37.6781 51.6594 37.6781 46.5812C37.6781 41.4719 33.8031 38.6062 28.0438 38.6062H19.0094V61.3437ZM86.5406 38.6062H81.6906V61.3437H86.3469V52.1156C86.3469 49.625 86.2656 47.3625 86.1687 45.425C86.7219 46.5469 88.3812 49.95 89.1156 51.2531L95.1719 61.3594H100.006V38.6062H95.4V47.6062C95.4 50.0969 95.4812 52.5875 95.5781 54.5719C95.025 53.4156 93.3656 49.9969 92.5844 48.7125L86.5406 38.6062ZM43.0812 53.825C43.0812 56.8687 45.6219 58.0719 48.2906 58.0719C50.05 58.0719 52.9625 57.5687 52.9625 55.2062C52.9625 52.7156 49.4469 52.2594 46.0781 51.3812C42.5312 50.4219 39.1125 49.1187 39.1125 44.8719C39.1125 40.1687 43.5406 37.9531 47.6906 37.9531C52.4906 37.9531 56.8875 40.0375 56.8875 45.3437H52.1688C51.9906 42.5781 49.875 41.8781 47.4656 41.8781C45.8531 41.8781 43.8188 42.5125 43.8188 44.4656C43.8188 46.2062 44.975 46.4844 50.7531 47.9656C52.3969 48.4219 57.6719 49.4469 57.6719 54.6063C57.6719 58.8531 54.3344 61.9969 48.1187 61.9969C43.0406 61.9969 38.2875 59.5063 38.3375 53.825H43.0812Z" fill="black"/>
</g>
<defs>
<clipPath id="clip0">
<rect width="100" height="100" fill="white"/>
</clipPath>
</defs>
</svg>
