<svg width="50" height="50" viewBox="0 0 50 50" fill="none" xmlns="http://www.w3.org/2000/svg">
<path d="M50 7.42176V42.578C50 43.2225 49.4727 43.7499 48.8281 43.7499H44.9219C44.2773 43.7499 43.75 43.2225 43.75 42.578V27.744L27.002 43.0272C24.9902 44.7069 21.875 43.3007 21.875 40.6249V27.744L5.12695 43.0272C3.11523 44.7069 0 43.3007 0 40.6249V9.37489C0 6.69911 3.11523 5.30262 5.12695 6.97254L21.875 22.1483V9.37489C21.875 6.69911 24.9902 5.30262 27.002 6.97254L43.75 22.1483V7.42176C43.75 6.77723 44.2773 6.24989 44.9219 6.24989H48.8281C49.4727 6.24989 50 6.77723 50 7.42176Z" fill="#FBB666"/>
</svg>
