<svg width="26" height="26" viewBox="0 0 26 26" fill="none" xmlns="http://www.w3.org/2000/svg">
<g clip-path="url(#clip0)">
<path d="M21.7598 11.3816H20.5879V7.86597C20.5879 3.77417 17.2578 0.444092 13.166 0.444092C9.07422 0.444092 5.74414 3.77417 5.74414 7.86597V11.3816H4.57227C3.27832 11.3816 2.22852 12.4314 2.22852 13.7253V23.1003C2.22852 24.3943 3.27832 25.4441 4.57227 25.4441H21.7598C23.0537 25.4441 24.1035 24.3943 24.1035 23.1003V13.7253C24.1035 12.4314 23.0537 11.3816 21.7598 11.3816ZM16.6816 11.3816H9.65039V7.86597C9.65039 5.92749 11.2275 4.35034 13.166 4.35034C15.1045 4.35034 16.6816 5.92749 16.6816 7.86597V11.3816Z" fill="white"/>
</g>
<defs>
<clipPath id="clip0">
<rect width="25" height="25" fill="white" transform="translate(0.666016 0.444092)"/>
</clipPath>
</defs>
</svg>
