<svg width="50" height="50" viewBox="0 0 50 50" fill="none" xmlns="http://www.w3.org/2000/svg">
<path d="M47.7864 23.6979L43.4384 16.1644C43.5314 15.9785 43.6012 15.7692 43.6012 15.5366C43.6012 14.8391 43.0199 14.2577 42.3224 14.2345L37.5093 5.91043C37.5558 5.77094 37.6022 5.63144 37.6022 5.49194C37.6022 4.74793 36.9977 4.1666 36.2769 4.1666C35.8584 4.1666 35.5096 4.35262 35.2538 4.65488H25.9998C25.7672 4.35271 25.4185 4.16668 25 4.16668C24.5815 4.16668 24.2327 4.35271 24.0001 4.65496H14.7926C14.5368 4.35271 14.1881 4.16668 13.7695 4.16668C13.0488 4.16668 12.4442 4.74793 12.4442 5.49203C12.4442 5.63153 12.4907 5.79429 12.5372 5.91052L7.67758 14.3509C7.21265 14.5601 6.88704 15.0019 6.88704 15.5367C6.88704 15.5832 6.9103 15.6297 6.9103 15.6762L2.28322 23.6748C1.65544 23.791 1.19034 24.3258 1.19034 24.9768C1.19034 25.6046 1.63209 26.1394 2.23669 26.2789L7.02654 34.5565C6.98001 34.696 6.95674 34.8123 6.95674 34.975C6.95674 35.6028 7.3985 36.1376 8.0031 36.2538L12.4907 44.0431C12.4442 44.1826 12.3977 44.3453 12.3977 44.5081C12.3977 45.2521 13.0022 45.8334 13.7231 45.8334C14.1416 45.8334 14.4903 45.6474 14.7229 45.3684H24.0002C24.2327 45.6473 24.6047 45.8333 25 45.8333C25.3952 45.8333 25.7672 45.6473 25.9998 45.3683H35.3004C35.5329 45.6241 35.8817 45.7868 36.2537 45.7868C36.9977 45.7868 37.5791 45.1823 37.5791 44.4615C37.5791 44.322 37.5559 44.2057 37.5093 44.0895L41.9969 36.2537C42.6014 36.1375 43.0433 35.6027 43.0433 34.9749C43.0433 34.8354 43.02 34.6959 42.9735 34.5564L47.7401 26.2788C48.3446 26.1626 48.8097 25.6278 48.8097 24.9768C48.8095 24.349 48.3677 23.8142 47.7864 23.6979V23.6979ZM13.3277 41.9038L9.53773 35.3237H13.3277V41.9038ZM13.3277 34.6261H9.53773C9.51447 34.5332 9.46794 34.4402 9.4215 34.3471L13.3277 30.2317V34.6261ZM13.3277 29.2085L8.9564 33.8356C8.84016 33.7891 8.72385 33.7193 8.60761 33.6961L3.77141 25.3255C3.81786 25.2093 3.81786 25.093 3.81786 24.9768C3.81786 24.8605 3.81786 24.7676 3.79459 24.6745L8.30544 16.862C8.53799 16.8387 8.77046 16.7689 8.97975 16.6294L13.3278 21.1403V29.2085H13.3277ZM13.3277 20.3264L9.35171 16.211C9.46794 16.0249 9.53773 15.7925 9.53773 15.5367C9.53773 15.5135 9.51447 15.4669 9.51447 15.4437L13.3277 14.0718V20.3264ZM13.3277 13.3277L9.53773 14.6996L13.3277 8.14264V13.3277ZM41.6713 16.7225L41.7411 16.8387L38.6718 31.3477L33.138 25.5116L41.6481 16.6992L41.6713 16.7225ZM25.3255 33.6031L26.3253 34.6261H24.3489L25.3255 33.6031ZM25.3022 32.6265L18.0711 25.2093L24.9767 17.8851L32.1847 25.4883L25.3022 32.6265V32.6265ZM25.7672 33.138L32.6497 25.9998L38.5091 32.1847L37.9976 34.6261H27.2321L25.7672 33.138V33.138ZM35.6259 6.63135C35.7189 6.67788 35.8119 6.72441 35.9282 6.74767L40.9505 15.4902V15.5367C40.9505 15.7925 41.0202 16.0249 41.1365 16.211L32.673 25L25.4651 17.3968L35.6259 6.63135ZM34.8354 6.44533L24.9767 16.8853L20.0241 11.6537L34.4633 6.44533H34.8354V6.44533ZM24.1164 6.44533C24.3488 6.67779 24.6511 6.81729 25 6.81729C25.3488 6.81729 25.651 6.67779 25.8836 6.44533H32.394L19.5126 11.0956L15.0949 6.44533H24.1164V6.44533ZM14.0253 6.93361L14.1183 6.74767C14.1967 6.72762 14.2743 6.70434 14.3508 6.67788L18.7919 11.3515L14.0253 13.0721V6.93361ZM14.0253 13.8161L19.3034 11.9095L24.4884 17.3968L17.5828 24.6978L14.0253 21.0473V13.8161ZM14.0253 21.861L17.1875 25.1395L14.0253 28.4645V21.861V21.861ZM14.0253 29.4876L17.6758 25.6279L24.8605 33.0916L23.3724 34.6261H14.0253V29.4876V29.4876ZM14.6298 43.5547C14.4903 43.4152 14.3276 43.3222 14.1183 43.2524L14.0253 43.1129V35.3237H22.6981L14.7461 43.5547H14.6298ZM25.9068 43.5547C25.6743 43.3455 25.3488 43.1827 25 43.1827C24.6511 43.1827 24.3258 43.3455 24.0931 43.5547H15.7225L23.6745 35.3237H26.9995L34.9515 43.5547H25.9068ZM36.3235 42.5316L35.9514 43.1827C35.8352 43.2059 35.7422 43.2524 35.6492 43.2989L27.9065 35.3236H37.835L36.3235 42.5316V42.5316ZM37.4395 40.6018L38.5556 35.3237H40.4622L37.4395 40.6018ZM40.4622 34.6261H38.6951L39.0903 32.7893L40.5784 34.3704C40.532 34.4401 40.4855 34.5331 40.4622 34.6261V34.6261ZM46.2054 25.3023L41.3922 33.6961C41.276 33.7425 41.1597 33.7891 41.0435 33.8588L39.2531 31.9522L42.2526 17.7223L46.2285 24.6048C46.2054 24.721 46.1588 24.8373 46.1588 24.9768C46.1588 25.093 46.1821 25.186 46.2054 25.3023Z" fill="white"/>
</svg>
