<svg width="156" height="30" viewBox="0 0 156 30" fill="none" xmlns="http://www.w3.org/2000/svg">
<g clip-path="url(#clip0)">
<path d="M103.322 8.83303C109.958 8.83303 113.722 13.9021 113.384 20.9379H97.73C98.1815 23.9179 100.892 26.0197 103.89 25.7152C104.906 25.7393 105.916 25.5616 106.863 25.1924C107.81 24.8233 108.674 24.27 109.405 23.5645L112.139 26.5294C111.078 27.6236 109.797 28.4798 108.38 29.0413C106.963 29.6027 105.443 29.8566 103.921 29.7861C97.2385 29.7861 92.9218 25.3312 92.9218 19.3094C92.8907 17.9316 93.1378 16.5616 93.6485 15.2815C94.1591 14.0014 94.9228 12.8375 95.8937 11.8594C96.8647 10.8813 98.023 10.1091 99.2993 9.58914C100.576 9.06914 101.944 8.81197 103.322 8.83303ZM31.6909 8.83303C38.3273 8.83303 42.0906 13.9021 41.7527 20.9379H26.1145C26.5661 23.9112 29.2661 26.0106 32.2591 25.7152C33.2749 25.7393 34.2855 25.5617 35.2322 25.1925C36.1789 24.8233 37.0429 24.27 37.7742 23.5645L40.5085 26.5294C39.4476 27.6236 38.1663 28.4799 36.7494 29.0413C35.3325 29.6028 33.8124 29.8567 32.29 29.7861C25.6076 29.7861 21.2912 25.3312 21.2912 19.3094C21.2601 17.9316 21.5073 16.5617 22.0179 15.2817C22.5286 14.0016 23.2922 12.8377 24.2631 11.8597C25.2341 10.8816 26.3923 10.1095 27.6686 9.58951C28.9449 9.06951 30.3129 8.81232 31.6909 8.83333V8.83303ZM132.755 12.5967L129.175 14.6858C128.682 13.9527 128.009 13.3578 127.222 12.9572C126.434 12.5566 125.557 12.3637 124.674 12.3967C122.385 12.3967 121.218 13.5179 121.218 14.8088C121.218 16.0988 123.061 16.6518 125.965 17.297L126.163 17.3409L126.363 17.3858C126.463 17.4085 126.563 17.4312 126.663 17.4552L126.864 17.503C126.931 17.5191 126.998 17.5358 127.065 17.5524L127.265 17.6033L127.466 17.6561C130.303 18.4158 133 19.7364 133 23.2882C133 26.0685 130.588 29.8015 124.874 29.7706C123.116 29.8996 121.356 29.5316 119.797 28.7086C118.238 27.8855 116.942 26.6406 116.056 25.1161L119.912 23.0424C120.421 23.9539 121.17 24.7089 122.077 25.226C122.984 25.743 124.015 26.0025 125.058 25.9764C127.47 25.9764 128.714 24.7321 128.714 23.3188C128.714 21.9055 126.379 21.3524 123.845 20.8303C123.776 20.8158 123.708 20.8012 123.639 20.7864L123.433 20.7415L123.33 20.7185L123.125 20.6718C119.942 19.9364 116.886 18.6967 116.886 14.8394C116.886 11.6594 119.958 8.69455 124.659 8.69455C126.229 8.6 127.797 8.90892 129.214 9.5919C130.632 10.2749 131.85 11.3092 132.755 12.5964V12.5967ZM88.8818 0V29.3712H84.6112V26.6061C83.8032 27.6064 82.78 28.4118 81.6179 28.9624C80.4557 29.5129 79.1844 29.7945 77.8985 29.7861C76.5466 29.7745 75.2108 29.4922 73.9697 28.956C72.7287 28.4198 71.6076 27.6404 70.6727 26.664C69.7377 25.6875 69.0078 24.5336 68.5259 23.2705C68.0441 22.0073 67.8202 20.6605 67.8673 19.3094C67.8091 17.9538 68.0266 16.6005 68.5066 15.3313C68.9865 14.0622 69.719 12.9036 70.6596 11.9257C71.6002 10.9478 72.7294 10.1709 73.9789 9.64197C75.2284 9.11304 76.5722 8.8431 77.9291 8.84848C79.2001 8.8391 80.4576 9.10948 81.6124 9.64045C82.7671 10.1714 83.791 10.95 84.6112 11.9209V0H88.8818ZM17.6658 9.32424V13.257L5.59151 25.5464H17.8809V29.4173H0V25.5L12.0742 13.2109H0.276364V9.32455H17.6658V9.32424ZM140.727 0V19.2327L149.775 9.21697H154.967L147.118 17.8348L155.152 29.3712H150.343L144.107 20.4461L140.727 24.1485V29.3867H136.457V0H140.727ZM55.1788 8.84848C60.2485 8.84848 64.5188 12.1509 64.5188 17.6197V29.3712H60.1255V18.1576C60.1255 14.8703 58.5279 12.8885 55.3018 12.8885C54.6048 12.8369 53.9051 12.9394 53.2522 13.1887C52.5993 13.438 52.0092 13.8279 51.5239 14.3308C51.0386 14.8336 50.6699 15.4372 50.4441 16.0985C50.2182 16.7599 50.1407 17.4629 50.217 18.1576V29.3715H45.8697V17.62C45.8697 12.1512 50.1091 8.84848 55.1788 8.84848ZM78.4824 12.9497C74.9703 12.9497 72.1227 15.797 72.1227 19.3094C72.1227 22.8215 74.97 25.6691 78.4824 25.6691C81.9945 25.6691 84.8421 22.8218 84.8421 19.3094C84.8421 15.7973 81.9948 12.9497 78.4824 12.9497ZM97.7151 17.5736L108.668 17.5888C108.519 14.8191 106.153 12.6939 103.383 12.8421C100.541 12.6755 98.0591 14.7473 97.7151 17.5736ZM26.1152 17.5736L37.037 17.5888C36.88 14.8252 34.517 12.7094 31.7527 12.8576C28.927 12.7067 26.4655 14.7658 26.1148 17.5736H26.1152Z" fill="black"/>
</g>
<defs>
<clipPath id="clip0">
<rect width="155.152" height="30" fill="white"/>
</clipPath>
</defs>
</svg>
