<svg width="239" height="216" viewBox="0 0 239 216" fill="none" xmlns="http://www.w3.org/2000/svg">
<circle cx="3" cy="3" r="3" fill="#FBB666"/>
<circle cx="123" cy="3" r="3" fill="#FBB666"/>
<circle cx="3" cy="93" r="3" fill="#FBB666"/>
<circle cx="123" cy="93" r="3" fill="#FBB666"/>
<circle cx="3" cy="33" r="3" fill="#FBB666"/>
<circle cx="123" cy="33" r="3" fill="#FBB666"/>
<circle cx="3" cy="63" r="3" fill="#FBB666"/>
<circle cx="123" cy="63" r="3" fill="#FBB666"/>
<circle cx="43" cy="3" r="3" fill="#FBB666"/>
<circle cx="43" cy="93" r="3" fill="#FBB666"/>
<circle cx="43" cy="33" r="3" fill="#FBB666"/>
<circle cx="43" cy="63" r="3" fill="#FBB666"/>
<circle cx="83" cy="3" r="3" fill="#FBB666"/>
<circle cx="83" cy="93" r="3" fill="#FBB666"/>
<circle cx="83" cy="33" r="3" fill="#FBB666"/>
<circle cx="83" cy="63" r="3" fill="#FBB666"/>
<circle cx="3" cy="123" r="3" fill="#FBB666"/>
<circle cx="123" cy="123" r="3" fill="#FBB666"/>
<circle cx="3" cy="213" r="3" fill="#FBB666"/>
<circle cx="123" cy="213" r="3" fill="#FBB666"/>
<circle cx="3" cy="153" r="3" fill="#FBB666"/>
<circle cx="123" cy="153" r="3" fill="#FBB666"/>
<circle cx="3" cy="183" r="3" fill="#FBB666"/>
<circle cx="123" cy="183" r="3" fill="#FBB666"/>
<circle cx="43" cy="123" r="3" fill="#FBB666"/>
<circle cx="43" cy="213" r="3" fill="#FBB666"/>
<circle cx="43" cy="153" r="3" fill="#FBB666"/>
<circle cx="43" cy="183" r="3" fill="#FBB666"/>
<circle cx="83" cy="123" r="3" fill="#FBB666"/>
<circle cx="83" cy="213" r="3" fill="#FBB666"/>
<circle cx="83" cy="153" r="3" fill="#FBB666"/>
<circle cx="83" cy="183" r="3" fill="#FBB666"/>
<circle cx="155" cy="3" r="3" fill="#FBB666"/>
<circle cx="155" cy="93" r="3" fill="#FBB666"/>
<circle cx="155" cy="33" r="3" fill="#FBB666"/>
<circle cx="155" cy="63" r="3" fill="#FBB666"/>
<circle cx="195" cy="3" r="3" fill="#FBB666"/>
<circle cx="195" cy="93" r="3" fill="#FBB666"/>
<circle cx="195" cy="33" r="3" fill="#FBB666"/>
<circle cx="195" cy="63" r="3" fill="#FBB666"/>
<circle cx="235" cy="3" r="3" fill="#FBB666"/>
<circle cx="235" cy="93" r="3" fill="#FBB666"/>
<circle cx="235" cy="33" r="3" fill="#FBB666"/>
<circle cx="235" cy="63" r="3" fill="#FBB666"/>
<circle cx="155" cy="123" r="3" fill="#FBB666"/>
<circle cx="155" cy="213" r="3" fill="#FBB666"/>
<circle cx="155" cy="153" r="3" fill="#FBB666"/>
<circle cx="155" cy="183" r="3" fill="#FBB666"/>
<circle cx="195" cy="123" r="3" fill="#FBB666"/>
<circle cx="195" cy="213" r="3" fill="#FBB666"/>
<circle cx="195" cy="153" r="3" fill="#FBB666"/>
<circle cx="195" cy="183" r="3" fill="#FBB666"/>
<circle cx="235" cy="123" r="3" fill="#FBB666"/>
<circle cx="235" cy="213" r="3" fill="#FBB666"/>
<circle cx="235" cy="153" r="3" fill="#FBB666"/>
<circle cx="235" cy="183" r="3" fill="#FBB666"/>
</svg>
