<svg width="126" height="334" viewBox="0 0 126 334" fill="none" xmlns="http://www.w3.org/2000/svg">
<circle cx="3" cy="3" r="3" fill="#FBB666"/>
<circle cx="123" cy="3" r="3" fill="#FBB666"/>
<circle cx="3" cy="93" r="3" fill="#FBB666"/>
<circle cx="123" cy="93" r="3" fill="#FBB666"/>
<circle cx="3" cy="33" r="3" fill="#FBB666"/>
<circle cx="123" cy="33" r="3" fill="#FBB666"/>
<circle cx="3" cy="63" r="3" fill="#FBB666"/>
<circle cx="123" cy="63" r="3" fill="#FBB666"/>
<circle cx="43" cy="3" r="3" fill="#FBB666"/>
<circle cx="43" cy="93" r="3" fill="#FBB666"/>
<circle cx="43" cy="33" r="3" fill="#FBB666"/>
<circle cx="43" cy="63" r="3" fill="#FBB666"/>
<circle cx="83" cy="3" r="3" fill="#FBB666"/>
<circle cx="83" cy="93" r="3" fill="#FBB666"/>
<circle cx="83" cy="33" r="3" fill="#FBB666"/>
<circle cx="83" cy="63" r="3" fill="#FBB666"/>
<circle cx="3" cy="122" r="3" fill="#FBB666"/>
<circle cx="123" cy="122" r="3" fill="#FBB666"/>
<circle cx="3" cy="212" r="3" fill="#FBB666"/>
<circle cx="123" cy="212" r="3" fill="#FBB666"/>
<circle cx="3" cy="152" r="3" fill="#FBB666"/>
<circle cx="123" cy="152" r="3" fill="#FBB666"/>
<circle cx="3" cy="182" r="3" fill="#FBB666"/>
<circle cx="123" cy="182" r="3" fill="#FBB666"/>
<circle cx="43" cy="122" r="3" fill="#FBB666"/>
<circle cx="43" cy="212" r="3" fill="#FBB666"/>
<circle cx="43" cy="152" r="3" fill="#FBB666"/>
<circle cx="43" cy="182" r="3" fill="#FBB666"/>
<circle cx="83" cy="122" r="3" fill="#FBB666"/>
<circle cx="83" cy="212" r="3" fill="#FBB666"/>
<circle cx="83" cy="152" r="3" fill="#FBB666"/>
<circle cx="83" cy="182" r="3" fill="#FBB666"/>
<circle cx="3" cy="241" r="3" fill="#FBB666"/>
<circle cx="123" cy="241" r="3" fill="#FBB666"/>
<circle cx="3" cy="331" r="3" fill="#FBB666"/>
<circle cx="123" cy="331" r="3" fill="#FBB666"/>
<circle cx="3" cy="271" r="3" fill="#FBB666"/>
<circle cx="123" cy="271" r="3" fill="#FBB666"/>
<circle cx="3" cy="301" r="3" fill="#FBB666"/>
<circle cx="123" cy="301" r="3" fill="#FBB666"/>
<circle cx="43" cy="241" r="3" fill="#FBB666"/>
<circle cx="43" cy="331" r="3" fill="#FBB666"/>
<circle cx="43" cy="271" r="3" fill="#FBB666"/>
<circle cx="43" cy="301" r="3" fill="#FBB666"/>
<circle cx="83" cy="241" r="3" fill="#FBB666"/>
<circle cx="83" cy="331" r="3" fill="#FBB666"/>
<circle cx="83" cy="271" r="3" fill="#FBB666"/>
<circle cx="83" cy="301" r="3" fill="#FBB666"/>
</svg>
