<svg width="50" height="50" viewBox="0 0 50 50" fill="none" xmlns="http://www.w3.org/2000/svg">
<g clip-path="url(#clip0)">
<path d="M48.5732 35.3316L37.6357 30.6441C37.1685 30.445 36.6492 30.403 36.1561 30.5246C35.6629 30.6461 35.2226 30.9245 34.9014 31.318L30.0576 37.2359C22.4558 33.6517 16.3381 27.534 12.7539 19.9322L18.6719 15.0885C19.0661 14.7678 19.3451 14.3275 19.4667 13.8341C19.5883 13.3407 19.5458 12.8212 19.3457 12.3541L14.6582 1.41659C14.4386 0.913088 14.0502 0.501991 13.5599 0.254191C13.0697 0.00639175 12.5083 -0.0625786 11.9727 0.0591731L1.81641 2.40292C1.29997 2.52218 0.839204 2.81296 0.509312 3.22781C0.179419 3.64266 -0.000118966 4.15708 5.91426e-08 4.6871C5.91426e-08 29.7359 20.3027 49.9996 45.3125 49.9996C45.8427 49.9999 46.3573 49.8205 46.7724 49.4906C47.1874 49.1607 47.4784 48.6998 47.5977 48.1832L49.9414 38.0269C50.0624 37.4887 49.9919 36.9251 49.7422 36.4331C49.4925 35.9412 49.0791 35.5517 48.5732 35.3316V35.3316Z" fill="#FBB666"/>
</g>
<defs>
<clipPath id="clip0">
<rect width="50" height="50" fill="white"/>
</clipPath>
</defs>
</svg>
