<svg width="47" height="24" viewBox="0 0 47 24" fill="none" xmlns="http://www.w3.org/2000/svg">
<path d="M10.6523 13.875V21H12.6445V3.86719H7.94531C5.84375 3.86719 4.29297 4.26953 3.29297 5.07422C2.28516 5.87891 1.78125 7.08984 1.78125 8.70703C1.78125 10.9727 2.92969 12.5039 5.22656 13.3008L0.574219 21H2.92969L7.07812 13.875H10.6523ZM10.6523 12.1641H7.92188C6.51562 12.1641 5.48438 11.8867 4.82812 11.332C4.17188 10.7695 3.84375 9.92969 3.84375 8.8125C3.84375 7.67969 4.17969 6.86328 4.85156 6.36328C5.51562 5.86328 6.58594 5.61328 8.0625 5.61328H10.6523V12.1641Z" fill="#FBB666"/>
<path d="M30.3633 21H28.3711V12.9375H19.3477V21H17.3555V3.86719H19.3477V11.1562H28.3711V3.86719H30.3633V21ZM40.3477 21H38.3555V5.63672H32.9297V3.86719H45.7734V5.63672H40.3477V21Z" fill="white"/>
</svg>
