<svg width="82" height="30" viewBox="0 0 82 30" fill="none" xmlns="http://www.w3.org/2000/svg">
<path d="M45.6523 16.875V24H47.6445V6.86719H42.9453C40.8438 6.86719 39.293 7.26953 38.293 8.07422C37.2852 8.87891 36.7812 10.0898 36.7812 11.707C36.7812 13.9727 37.9297 15.5039 40.2266 16.3008L35.5742 24H37.9297L42.0781 16.875H45.6523ZM45.6523 15.1641H42.9219C41.5156 15.1641 40.4844 14.8867 39.8281 14.332C39.1719 13.7695 38.8438 12.9297 38.8438 11.8125C38.8438 10.6797 39.1797 9.86328 39.8516 9.36328C40.5156 8.86328 41.5859 8.61328 43.0625 8.61328H45.6523V15.1641Z" fill="#FBB666"/>
<path d="M65.3633 24H63.3711V15.9375H54.3477V24H52.3555V6.86719H54.3477V14.1562H63.3711V6.86719H65.3633V24ZM75.3477 24H73.3555V8.63672H67.9297V6.86719H80.7734V8.63672H75.3477V24Z" fill="black"/>
<path d="M28.6719 14.2188L26.0631 9.69867C26.1189 9.5871 26.1607 9.46153 26.1607 9.322C26.1607 8.90346 25.812 8.55466 25.3935 8.5407L22.5056 3.54627C22.5335 3.46257 22.5614 3.37888 22.5614 3.29518C22.5614 2.84877 22.1987 2.49997 21.7662 2.49997C21.5151 2.49997 21.3058 2.61158 21.1523 2.79294H15.5999C15.4604 2.61164 15.2511 2.50002 15 2.50002C14.7489 2.50002 14.5396 2.61164 14.4001 2.79299H8.87559C8.7221 2.61164 8.51288 2.50002 8.26173 2.50002C7.82929 2.50002 7.46653 2.84877 7.46653 3.29523C7.46653 3.37893 7.49444 3.47658 7.52236 3.54632L4.60658 8.61054C4.32762 8.73606 4.13225 9.00117 4.13225 9.32205C4.13225 9.34992 4.14621 9.37783 4.14621 9.40575L1.36996 14.2049C0.993296 14.2746 0.714233 14.5955 0.714233 14.9861C0.714233 15.3628 0.979285 15.6837 1.34205 15.7674L4.21595 20.7339C4.18804 20.8176 4.17408 20.8874 4.17408 20.985C4.17408 21.3617 4.43913 21.6826 4.80189 21.7523L7.49444 26.4259C7.46653 26.5095 7.43866 26.6072 7.43866 26.7049C7.43866 27.1513 7.80137 27.5001 8.23387 27.5001C8.48496 27.5001 8.69423 27.3885 8.83377 27.2211H14.4002C14.5397 27.3884 14.7629 27.5 15 27.5C15.2372 27.5 15.4604 27.3884 15.5999 27.221H21.1803C21.3198 27.3744 21.529 27.4721 21.7523 27.4721C22.1987 27.4721 22.5475 27.1094 22.5475 26.6769C22.5475 26.5932 22.5336 26.5235 22.5056 26.4537L25.1982 21.7523C25.5609 21.6825 25.826 21.3616 25.826 20.985C25.826 20.9013 25.812 20.8176 25.7841 20.7339L28.6441 15.7673C29.0068 15.6976 29.2858 15.3767 29.2858 14.9861C29.2857 14.6094 29.0206 14.2885 28.6719 14.2188V14.2188ZM7.99663 25.1423L5.72267 21.1942H7.99663V25.1423ZM7.99663 20.7757H5.72267C5.70871 20.7199 5.6808 20.6641 5.65293 20.6083L7.99663 18.139V20.7757ZM7.99663 17.5251L5.37387 20.3014C5.30413 20.2735 5.23434 20.2316 5.1646 20.2177L2.26288 15.1953C2.29074 15.1256 2.29074 15.0558 2.29074 14.9861C2.29074 14.9163 2.29074 14.8605 2.27679 14.8047L4.9833 10.1172C5.12283 10.1032 5.26231 10.0614 5.38788 9.97768L7.99668 12.6842V17.5251H7.99663ZM7.99663 12.1959L5.61106 9.72658C5.6808 9.61497 5.72267 9.47549 5.72267 9.32205C5.72267 9.30809 5.70871 9.28018 5.70871 9.26622L7.99663 8.44309V12.1959ZM7.99663 7.99664L5.72267 8.81976L7.99663 4.88559V7.99664ZM25.0028 10.0335L25.0447 10.1032L23.2031 18.8086L19.8828 15.3069L24.9889 10.0196L25.0028 10.0335ZM15.1953 20.1618L15.7952 20.7757H14.6094L15.1953 20.1618ZM15.1814 19.5759L10.8427 15.1256L14.9861 10.7311L19.3108 15.293L15.1814 19.5759V19.5759ZM15.4604 19.8828L19.5899 15.5999L23.1055 19.3109L22.7986 20.7757H16.3393L15.4604 19.8828V19.8828ZM21.3756 3.97882C21.4314 4.00674 21.4872 4.03466 21.5569 4.04862L24.5703 9.29414V9.32205C24.5703 9.47549 24.6122 9.61497 24.6819 9.72658L19.6038 15L15.2791 10.4381L21.3756 3.97882ZM20.9013 3.86721L14.9861 10.1312L12.0145 6.99221L20.678 3.86721H20.9013V3.86721ZM14.4699 3.86721C14.6093 4.00669 14.7907 4.09039 15 4.09039C15.2093 4.09039 15.3906 4.00669 15.5302 3.86721H19.4364L11.7076 6.65736L9.05694 3.86721H14.4699V3.86721ZM8.41522 4.16018L8.47101 4.04862C8.51807 4.03659 8.56462 4.02262 8.61054 4.00674L11.2752 6.81091L8.41522 7.84325V4.16018ZM8.41522 8.28966L11.582 7.1457L14.6931 10.4381L10.5497 14.8187L8.41522 12.6284V8.28966ZM8.41522 13.1166L10.3125 15.0837L8.41522 17.0787V13.1166V13.1166ZM8.41522 17.6926L10.6055 15.3767L14.9163 19.855L14.0235 20.7757H8.41522V17.6926V17.6926ZM8.77793 26.1328C8.69423 26.0491 8.59658 25.9934 8.47101 25.9515L8.41522 25.8678V21.1942H13.6189L8.84767 26.1328H8.77793ZM15.5441 26.1328C15.4046 26.0073 15.2093 25.9097 15 25.9097C14.7907 25.9097 14.5955 26.0073 14.4559 26.1328H9.43356L14.2048 21.1942H16.1998L20.971 26.1328H15.5441ZM21.7941 25.519L21.5709 25.9096C21.5012 25.9236 21.4454 25.9514 21.3895 25.9793L16.7439 21.1942H22.701L21.7941 25.519V25.519ZM22.4637 24.3611L23.1334 21.1942H24.2774L22.4637 24.3611ZM24.2774 20.7757H23.2171L23.4542 19.6736L24.3471 20.6223C24.3192 20.6641 24.2913 20.7199 24.2774 20.7757V20.7757ZM27.7232 15.1814L24.8354 20.2177C24.7656 20.2455 24.6958 20.2735 24.6261 20.3153L23.5519 19.1713L25.3516 10.6334L27.7371 14.7629C27.7232 14.8326 27.6953 14.9024 27.6953 14.9861C27.6953 15.0558 27.7093 15.1116 27.7232 15.1814Z" fill="black"/>
</svg>
