<svg width="50" height="50" viewBox="0 0 50 50" fill="none" xmlns="http://www.w3.org/2000/svg">
<path d="M45.5566 8.1734L26.8066 0.360907C26.2355 0.123972 25.6232 0.00201416 25.0049 0.00201416C24.3865 0.00201416 23.7743 0.123972 23.2031 0.360907L4.45312 8.1734C2.70508 8.89606 1.5625 10.605 1.5625 12.4996C1.5625 31.8843 12.7441 45.2828 23.1934 49.6382C24.3457 50.1168 25.6445 50.1168 26.7969 49.6382C35.166 46.1519 48.4375 34.1109 48.4375 12.4996C48.4375 10.605 47.2949 8.89606 45.5566 8.1734ZM25.0098 43.5836L25 6.37653L42.1777 13.5347C41.8555 28.3199 34.1602 39.0328 25.0098 43.5836Z" fill="#FBB666"/>
</svg>
