<svg width="30" height="30" viewBox="0 0 30 30" fill="none" xmlns="http://www.w3.org/2000/svg">
<path d="M27.334 4.90381L16.084 0.216312C15.7413 0.0741516 15.3739 0.000976563 15.0029 0.000976562C14.6319 0.000976563 14.2646 0.0741516 13.9219 0.216312L2.67187 4.90381C1.62305 5.33741 0.9375 6.3628 0.9375 7.49951C0.9375 19.1304 7.64648 27.1694 13.916 29.7827C14.6074 30.0698 15.3867 30.0698 16.0781 29.7827C21.0996 27.6909 29.0625 20.4663 29.0625 7.49951C29.0625 6.3628 28.377 5.33741 27.334 4.90381ZM15.0059 26.1499L15 3.82569L25.3066 8.12061C25.1133 16.9917 20.4961 23.4194 15.0059 26.1499Z" fill="white" fill-opacity="0.3"/>
</svg>
