<svg width="100" height="100" viewBox="0 0 100 100" fill="none" xmlns="http://www.w3.org/2000/svg">
<path d="M33.75 55H26.25C24.8687 55 23.75 56.1187 23.75 57.5V87.5C23.75 88.8813 24.8687 90 26.25 90H33.75C35.1313 90 36.25 88.8813 36.25 87.5V57.5C36.25 56.1187 35.1313 55 33.75 55ZM13.75 70H6.25C4.86875 70 3.75 71.1187 3.75 72.5V87.5C3.75 88.8813 4.86875 90 6.25 90H13.75C15.1313 90 16.25 88.8813 16.25 87.5V72.5C16.25 71.1187 15.1313 70 13.75 70ZM53.75 40H46.25C44.8687 40 43.75 41.1187 43.75 42.5V87.5C43.75 88.8813 44.8687 90 46.25 90H53.75C55.1313 90 56.25 88.8813 56.25 87.5V42.5C56.25 41.1187 55.1313 40 53.75 40ZM73.75 25H66.25C64.8687 25 63.75 26.1187 63.75 27.5V87.5C63.75 88.8813 64.8687 90 66.25 90H73.75C75.1313 90 76.25 88.8813 76.25 87.5V27.5C76.25 26.1187 75.1313 25 73.75 25ZM93.75 10H86.25C84.8687 10 83.75 11.1187 83.75 12.5V87.5C83.75 88.8813 84.8687 90 86.25 90H93.75C95.1313 90 96.25 88.8813 96.25 87.5V12.5C96.25 11.1187 95.1313 10 93.75 10Z" fill="black"/>
</svg>
